# xmcd
#
# Track frame offsets: 
#        182
#        16820
#        32267
#        49345
#        71182
#        89125
#        105460
#        121320
#        139170
#        155095
#        172595
#        188697
#        206310
#        222407
#        238827
#        256530
#        275625
#        294245
#
# Disc length: 4149 seconds
#
# Revision: 3
# Processed by: cddbd v1.5.2PL0 Copyright (c) Steve Scherf et al.
# Submitted via: ExactAudioCopyFreeDBPlugin 1.0
#
DISCID=fd103312
DTITLE=Kool and the Gang - The Singles Collection
DYEAR=1988
DGENRE=Funk
TTITLE0=Celebration
TTITLE1=Ladies Night
TTITLE2=Too Hot
TTITLE3=Get Down On It
TTITLE4=Joanna
TTITLE5=Steppin' Out
TTITLE6=Straight Ahead
TTITLE7=Cherish
TTITLE8=Ohh La, La, La (Let's Go Dancin')
TTITLE9=Big Fun
TTITLE10=Fresh
TTITLE11=(When You Say You Love Somebody) In The Heart
TTITLE12=Hi De Hi, Hi De Ho
TTITLE13=Take It To The Top
TTITLE14=Victory
TTITLE15=Jones vs. Jones
TTITLE16=Misled
TTITLE17=Take My Heart (You Can Have It If You Want It)
EXTD=YEAR: 1988
EXTT0=
EXTT1=
EXTT2=
EXTT3=
EXTT4=
EXTT5=
EXTT6=
EXTT7=
EXTT8=
EXTT9=
EXTT10=
EXTT11=
EXTT12=
EXTT13=
EXTT14=
EXTT15=
EXTT16=
EXTT17=
PLAYORDER=
